<svg data-v-fde0c5aa="" xmlns="http://www.w3.org/2000/svg" viewBox="0 0 300 300" class="iconLeft"><!----><defs data-v-fde0c5aa=""><!----></defs><rect data-v-fde0c5aa="" fill="transparent" x="0" y="0" width="300px" height="300px" class="logo-background-square"></rect><defs data-v-fde0c5aa=""><!----></defs><g data-v-fde0c5aa="" id="0eb9f341-de28-4e64-a345-26c9df21bd29" fill="#071701" transform="matrix(1.2671799720912766,0,0,1.2671799720912766,75.54929330483762,137.58797177456853)"><path d="M8.69 5.68C8.69 5.84 8.54 5.96 8.36 5.96L5.68 5.96L5.68 15.47C5.68 15.65 5.56 15.81 5.42 15.81L3.77 15.81C3.63 15.81 3.50 15.65 3.50 15.47L3.50 5.96L0.77 5.96C0.62 5.96 0.49 5.84 0.49 5.68L0.49 4.05C0.49 3.89 0.62 3.78 0.77 3.78L8.36 3.78C8.54 3.78 8.69 3.89 8.69 4.05ZM18.37 15.89L12.35 9.32L12.35 15.53C12.35 15.68 12.24 15.81 12.08 15.81L10.44 15.81C10.29 15.81 10.16 15.68 10.16 15.53L10.16 3.70L16.18 10.26L16.18 4.06C16.18 3.91 16.31 3.78 16.45 3.78L18.10 3.78C18.24 3.78 18.37 3.91 18.37 4.06ZM26.92 5.68C26.92 5.84 26.77 5.96 26.59 5.96L23.91 5.96L23.91 15.47C23.91 15.65 23.79 15.81 23.65 15.81L21.99 15.81C21.85 15.81 21.73 15.65 21.73 15.47L21.73 5.96L19.00 5.96C18.84 5.96 18.72 5.84 18.72 5.68L18.72 4.05C18.72 3.89 18.84 3.78 19.00 3.78L26.59 3.78C26.77 3.78 26.92 3.89 26.92 4.05ZM43.06 15.29C43.43 15.12 43.78 14.92 44.11 14.69L44.11 14.67L44.13 14.67C44.13 14.66 44.13 14.66 44.14 14.66C44.25 14.56 44.27 14.38 44.16 14.27L43.11 13.02C43.02 12.91 42.85 12.88 42.74 12.95C42.74 12.96 42.73 12.96 42.73 12.96C41.13 14.04 38.93 13.76 37.66 12.26C36.29 10.64 36.48 8.22 38.09 6.85C39.37 5.77 41.16 5.66 42.52 6.45C42.63 6.51 42.74 6.50 42.83 6.43L44.14 5.32C44.25 5.22 44.27 5.04 44.16 4.91L44.13 4.89L44.09 4.86C41.89 3.29 38.82 3.35 36.68 5.17C34.13 7.32 33.82 11.14 35.98 13.68C37.76 15.78 40.67 16.35 43.06 15.29ZM50.54 15.82C47.22 15.82 44.52 13.12 44.52 9.80C44.52 6.48 47.22 3.78 50.54 3.78C53.86 3.78 56.56 6.48 56.56 9.80C56.56 13.12 53.86 15.82 50.54 15.82ZM50.54 5.96C48.43 5.96 46.70 7.69 46.70 9.80C46.70 11.91 48.43 13.62 50.54 13.62C52.65 13.62 54.36 11.91 54.36 9.80C54.36 7.69 52.65 5.96 50.54 5.96ZM66.30 15.89L60.28 9.32L60.28 15.53C60.28 15.68 60.17 15.81 60.02 15.81L58.38 15.81C58.23 15.81 58.10 15.68 58.10 15.53L58.10 3.70L64.12 10.26L64.12 4.06C64.12 3.91 64.25 3.78 64.39 3.78L66.04 3.78C66.18 3.78 66.30 3.91 66.30 4.06ZM74.86 5.68C74.86 5.84 74.70 5.96 74.52 5.96L71.85 5.96L71.85 15.47C71.85 15.65 71.72 15.81 71.58 15.81L69.93 15.81C69.79 15.81 69.66 15.65 69.66 15.47L69.66 5.96L66.93 5.96C66.78 5.96 66.65 5.84 66.65 5.68L66.65 4.05C66.65 3.89 66.78 3.78 66.93 3.78L74.52 3.78C74.70 3.78 74.86 3.89 74.86 4.05ZM84.18 15.37L81.96 11.42L81.65 10.89L81.58 10.77C83.61 10.32 84.66 8.82 84.66 7.35C84.66 6.38 84.21 5.46 83.44 4.82C82.66 4.14 81.55 3.79 80.28 3.79L76.19 3.79C76.03 3.79 75.91 3.92 75.91 4.06L75.91 5.17L76.05 5.42L76.05 5.43L77.91 8.71L75.91 8.71L75.91 15.54C75.91 15.69 76.03 15.82 76.19 15.82L77.83 15.82C77.97 15.82 78.09 15.69 78.09 15.54L78.09 10.89L79.14 10.89L79.44 11.42L81.83 15.65L81.86 15.69C81.90 15.76 81.98 15.82 82.08 15.82L83.96 15.82C84.11 15.82 84.22 15.69 84.22 15.53C84.22 15.48 84.22 15.44 84.20 15.40ZM80.12 8.19L78.88 5.98L80.28 5.98C81.79 5.98 82.46 6.69 82.46 7.35C82.46 7.91 81.96 8.53 80.82 8.68C80.70 8.69 80.56 8.71 80.42 8.71ZM93.91 11.16C93.91 11.00 93.79 10.89 93.63 10.89L92.71 10.89L91.00 4.05L90.99 3.98C90.94 3.88 90.85 3.81 90.73 3.81L88.90 3.81C88.79 3.81 88.69 3.88 88.65 3.98L88.63 4.06L85.79 15.41C85.79 15.43 85.79 15.44 85.78 15.44L85.78 15.50C85.78 15.67 85.90 15.79 86.04 15.79L87.74 15.79C87.85 15.79 87.96 15.71 87.99 15.60C87.99 15.58 88.00 15.57 88.00 15.57L88.62 13.06L91.01 13.06L91.63 15.55L91.64 15.60C91.69 15.71 91.78 15.79 91.90 15.79L93.59 15.79C93.74 15.79 93.86 15.67 93.86 15.50L93.86 15.47L93.84 15.40L93.25 13.06L93.63 13.06C93.79 13.06 93.91 12.95 93.91 12.80ZM89.17 10.89L89.82 8.30L90.47 10.89ZM103.54 15.29C103.91 15.12 104.26 14.92 104.59 14.69L104.59 14.67L104.61 14.67C104.61 14.66 104.61 14.66 104.62 14.66C104.73 14.56 104.75 14.38 104.64 14.27L103.59 13.02C103.50 12.91 103.33 12.88 103.22 12.95C103.22 12.96 103.21 12.96 103.21 12.96C101.61 14.04 99.41 13.76 98.14 12.26C96.77 10.64 96.96 8.22 98.57 6.85C99.85 5.77 101.64 5.66 103.00 6.45C103.11 6.51 103.22 6.50 103.31 6.43L104.62 5.32C104.73 5.22 104.75 5.04 104.64 4.91L104.61 4.89L104.57 4.86C102.37 3.29 99.30 3.35 97.16 5.17C94.61 7.32 94.30 11.14 96.46 13.68C98.24 15.78 101.15 16.35 103.54 15.29ZM113.97 5.68C113.97 5.84 113.82 5.96 113.64 5.96L110.96 5.96L110.96 15.47C110.96 15.65 110.84 15.81 110.70 15.81L109.05 15.81C108.91 15.81 108.78 15.65 108.78 15.47L108.78 5.96L106.05 5.96C105.90 5.96 105.77 5.84 105.77 5.68L105.77 4.05C105.77 3.89 105.90 3.78 106.05 3.78L113.64 3.78C113.82 3.78 113.97 3.89 113.97 4.05ZM119.64 15.82C116.33 15.82 113.62 13.12 113.62 9.80C113.62 6.48 116.33 3.78 119.64 3.78C122.96 3.78 125.66 6.48 125.66 9.80C125.66 13.12 122.96 15.82 119.64 15.82ZM119.64 5.96C117.53 5.96 115.81 7.69 115.81 9.80C115.81 11.91 117.53 13.62 119.64 13.62C121.76 13.62 123.47 11.91 123.47 9.80C123.47 7.69 121.76 5.96 119.64 5.96ZM135.48 15.37L133.25 11.42L132.94 10.89L132.87 10.77C134.90 10.32 135.95 8.82 135.95 7.35C135.95 6.38 135.51 5.46 134.74 4.82C133.95 4.14 132.85 3.79 131.57 3.79L127.48 3.79C127.33 3.79 127.20 3.92 127.20 4.06L127.20 5.17L127.34 5.42L127.34 5.43L129.21 8.71L127.20 8.71L127.20 15.54C127.20 15.69 127.33 15.82 127.48 15.82L129.12 15.82C129.26 15.82 129.39 15.69 129.39 15.54L129.39 10.89L130.44 10.89L130.73 11.42L133.13 15.65L133.15 15.69C133.20 15.76 133.28 15.82 133.38 15.82L135.25 15.82C135.41 15.82 135.52 15.69 135.52 15.53C135.52 15.48 135.52 15.44 135.49 15.40ZM131.42 8.19L130.17 5.98L131.57 5.98C133.08 5.98 133.76 6.69 133.76 7.35C133.76 7.91 133.25 8.53 132.12 8.68C131.99 8.69 131.85 8.71 131.71 8.71ZM145.56 12.28C145.56 12.38 145.54 13.22 145.01 14.07C144.52 14.88 143.51 15.83 141.46 15.83C139.83 15.83 138.56 15.15 137.87 13.93C137.55 13.34 137.42 12.77 137.38 12.40C137.38 12.38 137.37 12.35 137.37 12.32C137.37 12.18 137.48 12.05 137.62 12.04L139.34 12.04C139.45 12.05 139.54 12.12 139.57 12.24L139.57 12.25C139.57 12.26 139.58 12.28 139.58 12.29C139.61 12.46 139.68 12.70 139.82 12.91C140.11 13.40 140.66 13.65 141.46 13.65C142.31 13.65 142.86 13.41 143.15 12.94C143.35 12.61 143.37 12.26 143.37 12.26C143.37 11.87 143.28 11.41 142.55 11.12C142.02 10.89 141.46 10.88 141.46 10.88C141.36 10.88 140.46 10.86 139.54 10.50C138.12 9.93 137.35 8.81 137.35 7.34C137.35 7.20 137.38 5.89 138.40 4.87C139.13 4.13 140.17 3.75 141.46 3.75C142.28 3.75 143.47 3.93 144.38 4.86C145.26 5.75 145.49 6.89 145.54 7.45L145.54 7.48C145.54 7.64 145.43 7.77 145.28 7.77L143.58 7.77C143.47 7.76 143.37 7.66 143.35 7.55L143.35 7.50C143.30 7.31 143.23 7.03 143.09 6.75C142.90 6.40 142.52 5.94 141.46 5.94C140.77 5.94 140.27 6.09 139.94 6.41C139.57 6.79 139.54 7.34 139.54 7.34C139.54 7.73 139.64 8.18 140.36 8.47C140.90 8.68 141.46 8.69 141.46 8.69C141.55 8.69 142.45 8.71 143.37 9.09C144.79 9.67 145.56 10.81 145.56 12.28Z"></path></g><defs data-v-fde0c5aa=""><!----></defs><g data-v-fde0c5aa="" id="13b89dc5-2152-4fea-8d9a-e4db00adb7db" stroke="none" fill="#0DE9DC" transform="matrix(0.3861701917207852,0,0,0.3861701917207852,39.22765961655843,137.64264096329526)"><path d="M2 33h17v4H2zM17 39H2v7h15v-7zM6 44a1 1 0 110-2 1 1 0 010 2zm6-1a1 1 0 110-2 1 1 0 010 2zM27 46h35v-7H27v7zm29-5a1 1 0 110 2 1 1 0 010-2zm-6 1a1 1 0 110 2 1 1 0 010-2zm-7-.908a1 1 0 110 2 1 1 0 010-2zM37 42a1 1 0 110 2 1 1 0 010-2zm-5 0a1 1 0 110 2 1 1 0 010-2z"></path><path d="M40.112 16.452L46 16.203 46.871 24H45v6h6v-6h-2l-1-11.908-23 1V11h-6v11.092l2 2v17h-1a1 1 0 00-1 1v4a1 1 0 001 1h1V54h2v-6.908h1a1 1 0 001-1v-4a1 1 0 00-1-1h-1v-17l2-2v-5l8.825-.374L30.246 33H25v4h37v-4H43.754l-3.642-16.548zM23 43.092v2h-2v-2h2zm17.631-15.703l-5.131-2.28 4.173-1.789.958 4.069zm-4.73-10.759l2.176-.092.927 3.938-3.586-1.793.483-2.053zm-.954 4.054l2.677 1.338-3.327 1.426.65-2.764zm-1.356 5.765l5.039 2.24-5.815 1.057.776-3.297zM32.166 33l.149-1.13 8.985-1.634.476 2.764h-9.61zM2 48h17v2H2z"></path><path d="M25 50h17.976c-1.827.793-3.739 1.758-5.976 2.897-4.569 2.327-4.037 2.798-7 4-2.057.834-6.973 2.537-13 2-1.703-.152-6.127-.546-9-2-.341-.173-1.436-.753-3-1a9.754 9.754 0 00-3 0V62h60V48H25v2zm25 4h9v2h-9v-2zm-5 1h-4v-2h4v2zM15.605 2.112c-.84-.188-1.712-.153-2.51.202-.973.433-1.381 1.623-.88 2.478.615 1.05 1.703.963 2.814.916 1.399-.06 2.754.333 3.756 1.218L20 8l-.432-2.293c-.298-1.579-2.045-3.166-3.963-3.595zM26.728 7.09c.833.039 1.649.112 2.111-.763.376-.713.07-1.704-.66-2.065-.598-.296-1.252-.325-1.882-.168-1.438.357-2.749 1.68-2.972 2.996L23 9l.911-.895c.752-.738 1.768-1.064 2.817-1.015z"></path></g><!----></svg>